<?xml version="1.0" standalone="no"?>
<!DOCTYPE svg PUBLIC "-//W3C//DTD SVG 20010904//EN"
 "http://www.w3.org/TR/2001/REC-SVG-20010904/DTD/svg10.dtd">
<svg version="1.0" xmlns="http://www.w3.org/2000/svg"
 width="432.000000pt" height="432.000000pt" viewBox="0 0 432.000000 432.000000"
 preserveAspectRatio="xMidYMid meet">
<metadata>
Created by potrace 1.14, written by Peter Selinger 2001-2017
</metadata>
<g transform="translate(0.000000,432.000000) scale(0.100000,-0.100000)"
fill="#000000" stroke="none">
<path d="M568 3189 c-91 -13 -148 -66 -173 -157 -32 -124 20 -244 174 -397 81
-81 91 -97 68 -112 -6 -4 -151 -10 -322 -13 l-310 -5 0 -138 c0 -77 4 -141 9
-145 14 -8 825 -6 871 2 172 33 234 195 143 376 -22 44 -63 96 -125 160 -92
94 -108 122 -77 134 9 3 141 6 295 6 l279 0 1 -27 c0 -16 1 -169 1 -340 1
-281 2 -313 17 -314 110 -5 294 -2 299 5 3 5 5 159 5 343 l0 333 155 2 154 3
2 143 c1 136 0 142 -19 142 -200 5 -1414 3 -1447 -1z"/>
<path d="M2358 3192 c-53 -2 -78 -7 -78 -15 0 -7 -70 -223 -155 -482 -84 -258
-152 -471 -150 -474 9 -8 336 -4 344 5 5 5 21 44 36 87 25 69 30 77 54 78 112
4 254 0 261 -7 4 -5 18 -40 30 -79 12 -38 26 -74 31 -79 4 -5 162 -9 356 -9
l348 0 2 144 c0 79 2 151 2 159 1 8 70 -58 155 -145 l153 -160 264 2 c145 1
273 2 284 2 19 1 20 8 20 144 l0 142 -239 5 -238 5 -34 41 -34 41 62 23 c151
55 213 144 203 293 -10 135 -91 228 -234 267 -37 10 -399 15 -681 11 l-35 -1
0 -454 c0 -250 -1 -453 -3 -451 -2 1 -71 205 -154 451 -83 247 -152 450 -153
452 -4 4 -326 8 -417 4z m227 -374 c26 -79 53 -162 60 -185 l14 -42 -130 1
c-71 1 -129 4 -129 7 0 3 27 80 60 171 33 90 60 170 60 177 0 7 4 13 9 13 5 0
31 -64 56 -142z m1119 122 c29 -11 50 -68 41 -110 -11 -52 -35 -60 -177 -60
l-128 0 -1 33 c-1 37 -1 141 0 143 4 7 247 1 265 -6z"/>
<path d="M22 2102 c-12 -2 -20 -7 -17 -12 3 -4 55 -172 115 -372 61 -199 127
-414 146 -476 l35 -112 162 2 161 3 23 95 c12 52 25 104 27 115 3 11 7 30 10
43 3 12 7 25 9 30 3 4 8 25 11 47 11 67 22 60 49 -32 14 -48 39 -135 56 -192
17 -57 32 -106 35 -108 6 -6 315 -7 319 -2 3 4 74 285 83 324 2 10 29 118 60
240 31 121 57 227 59 235 2 8 12 50 23 93 16 63 17 77 6 78 -8 0 -61 1 -119 1
-179 0 -192 -1 -192 -14 0 -7 -8 -47 -17 -88 -10 -41 -20 -86 -22 -100 -3 -14
-14 -67 -26 -119 l-21 -93 -33 103 c-18 57 -48 151 -66 208 l-33 105 -147 0
-147 1 -40 -145 c-22 -80 -48 -174 -58 -209 l-17 -64 -48 149 c-27 82 -55 175
-64 207 -11 38 -22 57 -33 58 -61 3 -270 3 -289 1z"/>
<path d="M1599 2100 c-20 -5 -41 -61 -180 -485 -87 -264 -156 -481 -154 -483
8 -8 336 -5 344 4 5 5 21 44 36 87 22 62 32 77 49 78 11 1 75 2 141 3 l120 1
31 -85 32 -85 183 -5 c101 -3 262 -4 356 -2 l173 3 -1 57 c-1 31 0 102 0 157
l1 100 76 -80 c42 -44 110 -115 152 -158 l76 -78 448 -1 448 -1 64 32 c92 45
111 78 111 196 0 79 -4 96 -29 145 -34 66 -90 135 -168 209 -100 93 -86 100
191 101 210 1 211 1 212 23 1 27 1 236 0 257 -1 13 -44 15 -341 14 -188 -1
-357 -5 -378 -9 -54 -9 -108 -49 -134 -98 -18 -33 -23 -59 -23 -122 0 -114 36
-184 161 -315 52 -53 94 -102 94 -108 0 -28 -45 -32 -301 -30 l-261 3 -35 42
-35 42 29 7 c49 11 147 65 175 96 50 56 63 96 62 188 -1 65 -6 95 -22 126 -43
84 -120 142 -219 165 -38 9 -520 16 -683 10 l-25 -1 0 -450 c0 -247 -3 -446
-6 -442 -4 4 -73 205 -154 447 -81 242 -149 442 -151 444 -5 6 -440 7 -465 1z
m271 -357 c24 -71 51 -153 60 -184 l17 -56 -128 0 c-71 0 -129 2 -129 5 0 5
104 298 121 340 5 12 10 22 13 22 2 0 23 -57 46 -127z m1122 105 c49 -18 63
-104 23 -143 -23 -24 -29 -25 -155 -25 -109 0 -130 2 -131 15 -3 65 -1 144 4
152 9 14 224 14 259 1z"/>
</g>
</svg>
